<svg width="150" height="68" viewBox="0 0 150 68" fill="none" xmlns="http://www.w3.org/2000/svg">

<circle cx="2.08346" cy="17.1713" r="2.08346" fill="#FFE2AA"/>
<circle cx="83.1018" cy="17.1713" r="2.08346" fill="#FFE2AA"/>
<circle cx="2.08346" cy="33.3752" r="2.08346" fill="#FFE2AA"/>
<circle cx="83.1018" cy="33.3752" r="2.08346" fill="#FFE2AA"/>
<circle cx="2.08346" cy="49.5788" r="2.08346" fill="#FFE2AA"/>
<circle cx="83.1018" cy="49.5788" r="2.08346" fill="#FFE2AA"/>
<circle cx="2.08346" cy="65.7824" r="2.08346" fill="#FFE2AA"/>
<circle cx="83.1018" cy="65.7824" r="2.08346" fill="#FFE2AA"/>

<circle cx="18.2871" cy="17.1713" r="2.08346" fill="#FFE2AA"/>
<circle cx="99.3055" cy="17.1713" r="2.08346" fill="#FFE2AA"/>
<circle cx="18.2871" cy="33.3752" r="2.08346" fill="#FFE2AA"/>
<circle cx="99.3055" cy="33.3752" r="2.08346" fill="#FFE2AA"/>
<circle cx="18.2871" cy="49.5788" r="2.08346" fill="#FFE2AA"/>
<circle cx="99.3055" cy="49.5788" r="2.08346" fill="#FFE2AA"/>
<circle cx="18.2871" cy="65.7824" r="2.08346" fill="#FFE2AA"/>
<circle cx="99.3055" cy="65.7824" r="2.08346" fill="#FFE2AA"/>

<circle cx="34.4908" cy="17.1713" r="2.08346" fill="#FFE2AA"/>
<circle cx="115.509" cy="17.1713" r="2.08346" fill="#FFE2AA"/>
<circle cx="34.4908" cy="33.3752" r="2.08346" fill="#FFE2AA"/>
<circle cx="115.509" cy="33.3752" r="2.08346" fill="#FFE2AA"/>
<circle cx="34.4908" cy="49.5788" r="2.08346" fill="#FFE2AA"/>
<circle cx="115.509" cy="49.5788" r="2.08346" fill="#FFE2AA"/>
<circle cx="34.4908" cy="65.7824" r="2.08346" fill="#FFE2AA"/>
<circle cx="115.509" cy="65.7824" r="2.08346" fill="#FFE2AA"/>

<circle cx="50.6945" cy="17.1713" r="2.08346" fill="#FFE2AA"/>
<circle cx="131.713" cy="17.1713" r="2.08346" fill="#FFE2AA"/>
<circle cx="50.6945" cy="33.3752" r="2.08346" fill="#FFE2AA"/>
<circle cx="131.713" cy="33.3752" r="2.08346" fill="#FFE2AA"/>
<circle cx="50.6945" cy="49.5788" r="2.08346" fill="#FFE2AA"/>
<circle cx="131.713" cy="49.5788" r="2.08346" fill="#FFE2AA"/>
<circle cx="50.6945" cy="65.7824" r="2.08346" fill="#FFE2AA"/>
<circle cx="131.713" cy="65.7824" r="2.08346" fill="#FFE2AA"/>

<circle cx="66.8981" cy="17.1713" r="2.08346" fill="#FFE2AA"/>
<circle cx="147.916" cy="17.1713" r="2.08346" fill="#FFE2AA"/>
<circle cx="66.8981" cy="33.3752" r="2.08346" fill="#FFE2AA"/>
<circle cx="147.916" cy="33.3752" r="2.08346" fill="#FFE2AA"/>
<circle cx="66.8981" cy="49.5788" r="2.08346" fill="#FFE2AA"/>
<circle cx="147.916" cy="49.5788" r="2.08346" fill="#FFE2AA"/>
<circle cx="66.8981" cy="65.7824" r="2.08346" fill="#FFE2AA"/>
<circle cx="147.916" cy="65.7824" r="2.08346" fill="#FFE2AA"/>
</svg>
